<svg width="227" height="117" viewBox="0 0 227 117" fill="none" xmlns="http://www.w3.org/2000/svg">
<path d="M27.221 40.1675C25.3065 43.2058 22.8349 44.796 19.8872 44.796C14.1538 44.796 9.82848 40.2789 9.82848 34.3034C9.82848 29.0875 13.1509 23.8007 19.5022 23.8007C24.4354 23.8007 26.2384 26.9707 27.2109 28.6621L27.373 28.9457H38.0193L37.766 28.2165C36.5356 24.3506 34.1042 20.9776 30.8252 18.5879C27.5461 16.1982 23.5903 14.9164 19.5327 14.9286C14.5392 14.9658 9.75002 16.9159 6.15141 20.3775C4.28887 22.1586 2.80837 24.3 1.80006 26.6715C0.79175 29.043 0.276686 31.5949 0.286299 34.1718C0.2701 39.3142 2.29287 44.2535 5.91165 47.9077C9.53043 51.562 14.4502 53.6333 19.5934 53.6681C28.0314 53.6681 34.7879 48.8067 37.8268 40.6537L38.1003 39.9041H27.373L27.221 40.1675ZM59.9602 53.6681C63.7987 53.6942 67.5584 52.5797 70.7626 50.4663C73.9668 48.3528 76.4712 45.3355 77.9578 41.7971C79.4444 38.2586 79.8463 34.3583 79.1127 30.591C78.3791 26.8238 76.543 23.3593 73.8373 20.6369C71.1315 17.9145 67.6779 16.0568 63.9147 15.2997C60.1515 14.5425 56.2483 14.9199 52.6999 16.3839C49.1515 17.848 46.1179 20.3328 43.9839 23.5231C41.85 26.7134 40.7119 30.4655 40.7138 34.3034C40.7164 39.4175 42.7411 44.3231 46.3465 47.9506C49.9518 51.5781 54.8454 53.6334 59.9602 53.6681V53.6681ZM60.1222 24.8237C62.0639 24.8217 63.9627 25.3955 65.5782 26.4727C67.1937 27.5498 68.4534 29.0819 69.1979 30.875C69.9424 32.6681 70.1381 34.6416 69.7605 36.546C69.383 38.4504 68.449 40.2 67.0767 41.5735C65.7043 42.947 63.9553 43.8828 62.051 44.2623C60.1467 44.6418 58.1726 44.4481 56.3784 43.7056C54.5843 42.9631 53.0507 41.7052 51.9717 40.091C50.8927 38.4769 50.3167 36.5791 50.3167 34.6376C50.3194 32.0374 51.353 29.5442 53.191 27.7046C55.029 25.865 57.5215 24.829 60.1222 24.8237V24.8237ZM101.775 53.6681C106.913 53.6681 111.84 51.6283 115.474 47.997C119.108 44.3657 121.151 39.4402 121.153 34.3034V3.05176e-05H111.51V18.8684C108.605 16.3872 104.927 14.9942 101.107 14.9286C90.6227 14.9286 82.4885 23.5678 82.4885 34.3034C82.4885 39.4253 84.5179 44.3384 88.1326 47.9677C91.7472 51.5969 96.6527 53.6467 101.775 53.6681V53.6681ZM101.775 24.8237C103.717 24.8217 105.616 25.3955 107.231 26.4727C108.847 27.5498 110.107 29.0819 110.851 30.875C111.596 32.6681 111.791 34.6416 111.414 36.546C111.036 38.4504 110.102 40.2 108.73 41.5735C107.357 42.947 105.609 43.8828 103.704 44.2623C101.8 44.6418 99.8258 44.4481 98.0316 43.7056C96.2374 42.9631 94.7039 41.7052 93.6249 40.091C92.5458 38.4769 91.9699 36.5791 91.9699 34.6376C91.9632 33.3478 92.2121 32.0694 92.7024 30.8764C93.1927 29.6833 93.9145 28.5993 94.8263 27.6868C95.738 26.7742 96.8215 26.0513 98.0143 25.5599C99.207 25.0685 100.485 24.8183 101.775 24.8237V24.8237ZM27.221 102.92C25.3065 105.959 22.8349 107.549 19.8872 107.549C14.1538 107.549 9.82848 103.032 9.82848 97.0563C9.82848 91.8302 13.1509 86.5536 19.5022 86.5536C24.4354 86.5536 26.2384 89.7237 27.2109 91.4151L27.373 91.6985H38.0193L37.766 90.9592C36.5339 87.0952 34.1017 83.7245 30.8228 81.3368C27.5439 78.9491 23.589 77.6686 19.5327 77.6815C14.5392 77.7186 9.75002 79.6687 6.15141 83.1303C4.28792 84.9107 2.80671 87.0521 1.79833 89.4237C0.789948 91.7954 0.275503 94.3476 0.286299 96.9246C0.2701 102.067 2.29287 107.006 5.91165 110.661C9.53043 114.315 14.4502 116.386 19.5934 116.421C28.0314 116.421 34.7879 111.56 37.8268 103.407L38.1003 102.657H27.373L27.221 102.92ZM168.631 31.9537V52.6654H178.194V33.1286C178.194 27.2543 181.557 24.4084 186.247 24.4084V15.7794C175.347 15.7794 168.631 23.1424 168.631 31.9841V31.9537ZM219.057 37.281C218.525 38.7766 217.679 40.1414 216.577 41.2837C215.474 42.4261 214.141 43.3197 212.665 43.9047C210.352 44.9008 207.779 45.1213 205.33 44.5334C202.882 43.9455 200.689 42.5809 199.081 40.6436L226.269 29.1281L225.185 26.5859C220.971 16.62 210.75 11.8396 200.084 16.3466C189.417 20.8535 184.889 31.8828 189.113 41.8487C193.337 51.8146 205.179 55.9064 215.835 51.3995C220.612 49.4184 224.552 45.8379 226.978 41.2715L219.057 37.281ZM203.264 23.8817C205.028 23.1177 206.981 22.9023 208.869 23.2636C210.757 23.6248 212.493 24.546 213.85 25.9073L196.771 33.1286C196.856 31.1279 197.513 29.1935 198.664 27.5546C199.815 25.9157 201.411 24.641 203.264 23.8817ZM150.307 43.9453C147.992 44.9421 145.417 45.163 142.967 44.5752C140.517 43.9874 138.322 42.6222 136.713 40.684L163.901 29.1685L162.827 26.6264C158.613 16.6604 148.382 11.8801 137.725 16.387C127.069 20.894 122.531 31.9234 126.755 41.8893C130.979 51.8552 142.811 55.9468 153.477 51.4399C158.254 49.4589 162.193 45.8783 164.62 41.3119L156.719 37.2607C156.187 38.7621 155.34 40.1321 154.233 41.2782C153.127 42.4243 151.788 43.3199 150.307 43.9047V43.9453ZM140.896 23.8817C142.66 23.1163 144.613 22.9001 146.502 23.2615C148.39 23.6228 150.125 24.5448 151.482 25.9073L134.413 33.1286C134.495 31.1284 135.149 29.1937 136.298 27.5545C137.447 25.9153 139.043 24.6405 140.896 23.8817V23.8817ZM81.6984 98.8287C81.6984 104.703 78.4265 108.055 73.7263 108.055C69.0262 108.055 65.8454 104.703 65.8454 98.8287V78.5727H56.1918V100.287C56.1918 108.845 63.2827 116.229 73.7263 116.229C81.9111 116.229 88.0599 111.722 90.3492 105.675C91.0139 103.956 91.3573 102.13 91.3621 100.287V78.5727H81.7187L81.6984 98.8287ZM41.98 115.439H51.6234V62.7731H41.98V115.439ZM115.927 77.7017C112.131 77.7498 108.475 79.1463 105.615 81.6415V62.7731H95.8799V97.0766C95.8799 102.204 97.9172 107.122 101.544 110.748C105.17 114.374 110.089 116.411 115.217 116.411C120.346 116.411 125.265 114.374 128.891 110.748C132.518 107.122 134.555 102.204 134.555 97.0766C134.585 86.3207 126.441 77.6815 115.957 77.6815L115.927 77.7017ZM115.258 107.215C113.316 107.215 111.418 106.639 109.804 105.56C108.189 104.481 106.931 102.948 106.189 101.154C105.446 99.3601 105.252 97.3863 105.632 95.4823C106.011 93.5783 106.947 91.8296 108.321 90.4575C109.695 89.0854 111.445 88.1515 113.349 87.774C115.254 87.3964 117.228 87.5923 119.021 88.3366C120.815 89.081 122.347 90.3403 123.424 91.9556C124.502 93.5708 125.076 95.4693 125.074 97.4107C125.063 100.002 124.029 102.485 122.196 104.317C120.363 106.15 117.88 107.184 115.288 107.194L115.258 107.215Z" fill="white"/>
</svg>
