<svg width="231" height="54" viewBox="0 0 231 54" fill="none" xmlns="http://www.w3.org/2000/svg">
<path d="M28.1612 39.7422C27.4316 41.0971 26.3579 42.2341 25.0492 43.0378C23.7405 43.8414 22.2434 44.2832 20.7097 44.3183C19.3525 44.3422 18.0046 44.0893 16.7475 43.575C15.4904 43.0607 14.3504 42.2956 13.3964 41.3261C12.4424 40.3566 11.6942 39.2029 11.1972 37.9347C10.7002 36.6665 10.4647 35.3103 10.5048 33.9481C10.5048 28.8098 13.8805 23.5935 20.3208 23.5935C21.9416 23.5451 23.5411 23.9731 24.9229 24.8248C26.3047 25.6766 27.4086 26.915 28.0989 28.388L28.2545 28.6692H39.0506L38.8017 27.9509C37.4821 24.0845 34.9808 20.7349 31.654 18.3793C28.3272 16.0236 24.3447 14.7822 20.2741 14.8319C15.2368 14.8523 10.3905 16.7694 6.69344 20.2043C4.81586 21.9361 3.31795 24.0414 2.29487 26.3861C1.27179 28.7307 0.746028 31.2635 0.751012 33.8232C0.751012 45.724 10.9092 53.0799 20.3364 53.0799C24.3732 53.1758 28.3362 51.9829 31.6546 49.673C34.9729 47.3632 37.4755 44.0555 38.8017 40.2265L39.0818 39.4925H28.27L28.1612 39.7422ZM61.4518 14.8319C57.7056 14.9332 54.0722 16.1411 51.0063 18.3047C47.9404 20.4683 45.5781 23.4914 44.2147 26.9959C42.8512 30.5004 42.5471 34.3307 43.3406 38.0077C44.1341 41.6847 45.99 45.0453 48.6759 47.669C51.3619 50.2926 54.7588 52.063 58.4417 52.7587C62.1246 53.4543 65.93 53.0444 69.382 51.5801C72.834 50.1157 75.7794 47.6621 77.8497 44.5259C79.92 41.3898 81.0232 37.7104 81.0215 33.9481C80.9952 31.4003 80.4671 28.8829 79.4678 26.5409C78.4685 24.1988 77.0177 22.0785 75.1987 20.3017C73.3798 18.525 71.2288 17.1269 68.8695 16.1881C66.5102 15.2494 63.9892 14.7885 61.4518 14.8319ZM61.4518 43.9748C59.5541 43.9165 57.7156 43.298 56.166 42.1968C54.6164 41.0956 53.4243 39.5604 52.7387 37.7829C52.0532 36.0055 51.9044 34.0647 52.3111 32.2029C52.7178 30.3411 53.6619 28.6409 55.0255 27.3147C56.3891 25.9885 58.1117 25.095 59.9782 24.7459C61.8446 24.3969 63.7721 24.6078 65.5199 25.3522C67.2677 26.0965 68.7583 27.3413 69.8055 28.9312C70.8526 30.5211 71.4098 32.3856 71.4076 34.2916C71.3748 36.8847 70.3204 39.3594 68.4751 41.174C66.6297 42.9886 64.1436 43.9956 61.5606 43.9748H61.4518ZM113.581 18.7207C110.608 16.2576 106.888 14.8858 103.034 14.8319C100.538 14.8213 98.0643 15.3097 95.758 16.2686C93.4518 17.2275 91.3588 18.6376 89.601 20.4169C87.8432 22.1962 86.4558 24.3091 85.5196 26.6322C84.5834 28.9553 84.1174 31.4422 84.1484 33.9481C84.2922 39.0732 86.4211 43.9399 90.0828 47.514C93.7445 51.088 98.6501 53.0875 103.757 53.0875C108.864 53.0875 113.77 51.088 117.431 47.514C121.093 43.9399 123.222 39.0732 123.366 33.9481V0.088562H113.581V18.7207ZM103.718 43.9748C101.82 43.9165 99.982 43.298 98.4324 42.1968C96.8827 41.0956 95.6907 39.5604 95.0051 37.7829C94.3195 36.0055 94.1707 34.0647 94.5775 32.2029C94.9842 30.3411 95.9284 28.6409 97.292 27.3147C98.6556 25.9885 100.378 25.095 102.245 24.7459C104.111 24.3969 106.039 24.6078 107.786 25.3522C109.534 26.0965 111.025 27.3413 112.072 28.9312C113.119 30.5211 113.676 32.3856 113.674 34.2916C113.641 36.8902 112.583 39.3695 110.731 41.185C108.878 43.0006 106.384 44.004 103.796 43.9748H103.718ZM152.954 43.4436C150.607 44.4288 148.011 44.6468 145.534 44.0665C143.057 43.4861 140.825 42.137 139.155 40.2108L166.752 28.8567L165.788 26.3266C161.51 16.4873 151.149 11.7708 140.322 16.2219C129.495 20.673 124.921 31.5586 129.199 41.3978C133.477 51.237 145.487 55.2664 156.299 50.7685C161.099 48.8688 165.092 45.3516 167.592 40.82L159.581 36.8373C159.033 38.3571 158.163 39.74 157.033 40.8911C155.902 42.0421 154.538 42.9342 153.032 43.5062L152.954 43.4436ZM143.402 23.6247C145.19 22.8668 147.16 22.6493 149.069 22.9988C150.979 23.3484 152.745 24.2499 154.152 25.5926L136.822 32.7298C136.935 30.7279 137.624 28.8019 138.805 27.1856C139.987 25.5693 141.611 24.3322 143.48 23.6247H143.402ZM222.739 36.8999C222.183 38.3904 221.316 39.7448 220.198 40.8731C219.079 42.0014 217.734 42.8776 216.252 43.4436C213.906 44.4288 211.31 44.6468 208.833 44.0665C206.356 43.4861 204.124 42.137 202.454 40.2108L230.051 28.8567L228.946 26.3422C224.668 16.503 214.308 11.7864 203.481 16.2375C192.654 20.6886 188.08 31.5742 192.358 41.4134C196.636 51.2527 208.645 55.2821 219.457 50.7841C224.258 48.8844 228.251 45.3672 230.751 40.8356L222.739 36.8999ZM206.701 23.6247C208.489 22.8668 210.459 22.6493 212.368 22.9988C214.277 23.3484 216.044 24.2499 217.45 25.5926L200.121 32.7298C200.23 30.7315 200.915 28.8081 202.091 27.1921C203.267 25.5762 204.885 24.3371 206.748 23.6247H206.701ZM171.575 31.6367V52.096H181.344V32.7924C181.344 26.9982 184.751 24.1869 189.511 24.1869V15.6597C178.435 15.6597 171.621 22.9375 171.621 31.6367H171.575Z" fill="white"/>
</svg>
