<svg width="149" height="42" viewBox="0 0 149 42" fill="none" xmlns="http://www.w3.org/2000/svg">
<path d="M18.0855 34.2469C16.8103 35.9853 15.1741 36.7676 12.845 36.7676C8.76908 36.7676 5.82278 33.4994 5.82278 28.9971C5.82278 24.2746 8.58275 21.2209 12.845 21.2209C13.856 21.1986 14.8579 21.4149 15.7688 21.852C16.6796 22.2891 17.4735 22.9346 18.0855 23.7357L18.6387 24.3963L23 20.5487L22.4177 19.9287C20.042 17.3559 16.7347 16 12.8567 16C5.28706 16 0 21.3425 0 28.9971C0 36.6517 5.28706 42 12.8567 42C16.7521 42 20.0129 40.6151 22.2896 38.0018L22.8136 37.4224L18.662 33.4937L18.0855 34.2469Z" fill="#3DAE2B"/>
<path d="M36.0029 16C28.3484 16 23 21.3425 23 28.9971C23 36.6517 28.3484 42 36.0029 42C43.5374 42 49 36.53 49 28.9971C49 21.4642 43.5374 16 36.0029 16ZM36.0029 36.7676C31.7219 36.7676 28.7309 33.5748 28.7309 28.9971C28.7309 24.4194 31.7219 21.2209 36.0029 21.2209C40.2839 21.2209 43.2749 24.4194 43.2749 28.9971C43.2749 33.5748 40.2839 36.7676 36.0029 36.7676Z" fill="#3DAE2B"/>
<path d="M143.077 32.8273C142.348 35.261 140.056 36.7676 137.092 36.7676C135.58 36.8196 134.092 36.3732 132.855 35.4959C131.617 34.6186 130.697 33.3583 130.233 31.906L149 27.6064L148.902 26.8647C148.098 20.2648 143.462 16 137.092 16C129.383 16 124 21.3425 124 28.9971C124 36.53 129.503 42 137.092 42C142.784 42 147.328 38.9637 148.661 34.2759L148.902 33.4415L143.307 32.074L143.077 32.8273ZM137.092 21.2382C139.964 21.2382 141.239 22.826 141.773 23.8342L130.112 26.5055C130.496 24.9508 131.4 23.5776 132.672 22.6178C133.944 21.6581 135.505 21.1707 137.092 21.2382" fill="#3DAE2B"/>
<path d="M124 16.5037L123.453 16.2927C122.886 16.0906 122.29 15.9922 121.69 16.0018C120.456 15.9767 119.23 16.2118 118.086 16.693C116.941 17.1743 115.901 17.8917 115.03 18.8022C115.03 18.3288 115.03 17.8612 115.03 17.4049V16.5836H110V17.4049C110 18.1007 110.038 18.8536 110.082 19.652V19.7148C110.131 20.6444 110.186 21.6938 110.186 22.806V41H115.396V29.0912C115.396 24.0095 117.285 21.4315 121.006 21.4315C121.596 21.4302 122.182 21.5186 122.747 21.6938L123.694 21.9904L124 16.5037Z" fill="#3DAE2B"/>
<path d="M105.898 26.8647C105.062 20.2648 100.239 16 93.6125 16C85.7246 16 80 21.4642 80 28.9971C80 36.53 85.7246 42 93.6125 42C99.5344 42 104.255 38.9637 105.647 34.2759L105.898 33.4473L100.078 32.074L99.8391 32.8273C99.0862 35.261 96.6959 36.7676 93.6125 36.7676C90.1586 36.7676 87.5353 34.9655 86.4836 31.906L106 27.6064L105.898 26.8647ZM93.6364 21.2209C96.6242 21.2209 97.9449 22.8086 98.5006 23.8168L86.376 26.4881C87.3082 23.2142 90.0211 21.2209 93.6364 21.2209" fill="#3DAE2B"/>
<path d="M71.7158 19.506C69.7186 17.6879 67.1312 16.6834 64.45 16.6852C57.1176 16.6852 52 21.8867 52 29.3391C52 36.4361 57.2176 41.9986 63.8839 41.9986C66.7953 42.0447 69.608 40.9263 71.7158 38.8845V41.4119H77V10H71.7158V19.506ZM64.6499 36.9269C60.4814 36.9269 57.5728 33.8184 57.5728 29.3616C57.5728 24.9049 60.4814 21.7908 64.6499 21.7908C68.8184 21.7908 71.7158 24.9049 71.7158 29.3616C71.7158 33.8184 68.8073 36.9269 64.6499 36.9269Z" fill="#3DAE2B"/>
<path d="M9.85656 3.00913C9.61763 2.73593 9.31501 2.51876 8.97237 2.37458C8.58868 2.22042 8.17479 2.1447 7.75794 2.15246C7.32663 2.14757 6.89924 2.22999 6.50444 2.39417C6.10964 2.55836 5.75659 2.80052 5.46906 3.10435C5.17415 3.41199 4.94601 3.77132 4.79753 4.16197C4.46925 5.0342 4.46925 5.98669 4.79753 6.85891C4.94616 7.24718 5.17007 7.60585 5.45786 7.91654C5.73592 8.21247 6.07487 8.45178 6.45402 8.61987C6.83783 8.78802 7.25662 8.87292 7.67965 8.8684C8.14225 8.87699 8.59988 8.77707 9.01158 8.57755C9.39642 8.37933 9.72326 8.09408 9.96293 7.74731L12 9.18041C11.5518 9.78665 10.9335 10.2628 10.2147 10.5553C9.50953 10.8493 8.74701 11.0007 7.97621 10.9995C7.16147 11.0089 6.35173 10.8781 5.58656 10.6135C4.88092 10.3739 4.23516 9.99949 3.68947 9.51357C3.15007 9.02502 2.72655 8.4338 2.44703 7.77904C1.85099 6.3136 1.85099 4.69141 2.44703 3.22596C2.72646 2.56962 3.14994 1.97668 3.68947 1.48618C4.23516 1.00026 4.88092 0.625814 5.58656 0.386238C6.35257 0.12466 7.16174 -0.00604466 7.97621 0.00021461C8.30468 0.000704939 8.63244 0.0290075 8.95556 0.0848106C9.29803 0.138334 9.63375 0.225163 9.95733 0.343924C10.2918 0.463699 10.6093 0.621766 10.9031 0.814576C11.2103 1.01645 11.4839 1.26065 11.7146 1.53905L9.85656 3.00913Z" fill="#3DAE2B"/>
<path d="M17.3515 0H19.611L25 11H21.9205L20.8503 8.66548H16.0433L15.0105 11H12L17.3515 0ZM18.403 3.19606L16.9008 6.61444H19.8989L18.403 3.19606Z" fill="#3DAE2B"/>
<path d="M31.3444 2.82795C31.1355 2.58174 30.8554 2.3981 30.538 2.29936C30.2311 2.19301 29.9074 2.13586 29.5805 2.13024C29.3922 2.13086 29.2045 2.15034 29.0206 2.18838C28.8248 2.22188 28.6358 2.2843 28.4606 2.37337C28.2976 2.45124 28.1573 2.56557 28.0518 2.70638C27.919 2.8995 27.8677 3.13261 27.9081 3.35967C27.9486 3.58672 28.0778 3.7912 28.2702 3.93271C28.5607 4.12001 28.8799 4.26439 29.2165 4.36087C29.5973 4.47715 30.006 4.59872 30.4484 4.71501C30.8806 4.83802 31.2932 5.01584 31.6748 5.2436C32.0567 5.46225 32.3804 5.76062 32.6211 6.11578C32.8939 6.55915 33.0243 7.0679 32.9963 7.57998C33.0101 8.10566 32.8931 8.62707 32.6547 9.10232C32.4313 9.51669 32.1116 9.87807 31.7195 10.1595C31.3141 10.4526 30.8519 10.668 30.3589 10.7938C29.1615 11.101 27.8942 11.0643 26.7191 10.6881C26.0791 10.4684 25.4938 10.1265 25 9.68375L26.7359 7.88125C26.9836 8.19489 27.3084 8.44703 27.6822 8.61599C28.0512 8.78229 28.4548 8.86898 28.8637 8.86974C29.0672 8.86939 29.2699 8.8481 29.4685 8.80627C29.6649 8.76672 29.8538 8.69901 30.0284 8.60544C30.1852 8.52299 30.3195 8.40715 30.4205 8.26714C30.523 8.12373 30.5758 7.95382 30.5717 7.78085C30.577 7.63602 30.5451 7.4921 30.4788 7.3614C30.4125 7.2307 30.3137 7.11709 30.1909 7.03023C29.8951 6.83232 29.5708 6.67565 29.2277 6.56507C28.8414 6.43821 28.4214 6.31136 27.9734 6.1845C27.5339 6.05756 27.1127 5.88003 26.7191 5.65591C26.3371 5.44047 26.0101 5.14808 25.7615 4.7996C25.4846 4.37876 25.3499 3.88837 25.3752 3.39354C25.3633 2.88212 25.4845 2.37577 25.728 1.91879C25.9566 1.50613 26.2775 1.14539 26.6687 0.861617C27.0699 0.56599 27.5283 0.346936 28.0182 0.216723C28.5327 0.0731941 29.0664 0.00022195 29.6029 1.61577e-05C30.2176 -0.00135188 30.8292 0.0841597 31.4171 0.253728C32.0013 0.423727 32.5398 0.710378 32.9963 1.0942L31.3444 2.82795Z" fill="#3DAE2B"/>
<path d="M38 0H36V11H38V0Z" fill="#3DAE2B"/>
<path d="M41 0H44.4731L49.4069 7.64831H49.4421V0H52V11H48.656L43.5872 3.17383H43.5579V11H41V0Z" fill="#3DAE2B"/>
<path d="M54.0007 5.49998C53.9881 4.72186 54.139 3.94907 54.4448 3.22599C54.7274 2.56929 55.1545 1.97634 55.6982 1.48612C56.2448 1.00103 56.8913 0.626641 57.5979 0.386133C59.153 -0.128711 60.8483 -0.128711 62.4035 0.386133C63.1085 0.62969 63.7544 1.00373 64.3032 1.48612C64.8451 1.97664 65.2704 2.56961 65.551 3.22599C66.1497 4.6915 66.1497 6.3138 65.551 7.77931C65.2703 8.43409 64.845 9.02531 64.3032 9.51388C63.7563 9.99861 63.1098 10.373 62.4035 10.6139C60.8483 11.1287 59.153 11.1287 57.5979 10.6139C56.8903 10.3754 56.2433 10.0008 55.6982 9.51388C55.1547 9.02561 54.7275 8.43441 54.4448 7.77931C54.1394 7.05427 53.9885 6.27979 54.0007 5.49998V5.49998ZM56.5469 5.49998C56.5401 5.96127 56.6219 6.41995 56.7885 6.85384C56.9431 7.24679 57.1801 7.60648 57.4855 7.91151C57.8026 8.21868 58.1859 8.45847 58.6096 8.61485C59.5144 8.94036 60.515 8.94036 61.4199 8.61485C61.8436 8.45847 62.2268 8.21868 62.544 7.91151C62.8493 7.60648 63.0863 7.24679 63.2409 6.85384C63.563 5.98035 63.563 5.03024 63.2409 4.15675C63.0864 3.76373 62.8494 3.40402 62.544 3.09907C62.2268 2.79191 61.8436 2.55209 61.4199 2.39571C60.515 2.07019 59.5144 2.07019 58.6096 2.39571C58.1859 2.55209 57.8026 2.79191 57.4855 3.09907C57.18 3.40402 56.943 3.76373 56.7885 4.15675C56.6233 4.5873 56.5414 5.04224 56.5469 5.49998" fill="#3DAE2B"/>
</svg>
