<svg width="123" height="75" viewBox="0 0 123 75" fill="none" xmlns="http://www.w3.org/2000/svg">
<path d="M58.2279 2.48397C60.2188 1.31519 63.4496 1.35964 65.4095 2.57731L120.715 36.974C122.675 38.1961 122.635 40.1293 120.635 41.2714L64.7517 73.1706C62.7475 74.3127 59.49 74.2727 57.5169 73.0728L2.251 39.5694C0.277854 38.3739 0.291166 36.4585 2.28653 35.272L58.2279 2.48397Z" fill="white"/>
<path d="M61.2622 74.9985C59.9496 75.0249 58.6539 74.6966 57.5091 74.0478L1.61683 39.578C0.568625 38.9277 -0.00878208 38.0398 0.000100993 37.08C0.00898407 36.1203 0.595258 35.2368 1.65679 34.6045L58.2242 0.874703C60.2407 -0.327208 63.4963 -0.286851 65.4861 0.973361L121.41 36.358C122.453 37.0172 123.017 37.9142 123 38.8739C122.982 39.8337 122.382 40.7082 121.316 41.3271L64.8066 74.1464C63.7161 74.73 62.4962 75.0232 61.2622 74.9985V74.9985ZM61.7553 1.00028C60.7023 0.975563 59.6611 1.2291 58.735 1.73577V1.73577L2.15868 35.479C1.4125 35.9275 0.999443 36.497 0.995001 37.089C0.99056 37.681 1.39471 38.255 2.13201 38.7125L58.0333 73.1822C59.721 74.2227 62.5947 74.2586 64.3047 73.2629L120.814 40.4481C121.565 39.9996 121.983 39.448 121.996 38.856C122.009 38.264 121.609 37.681 120.877 37.2191L64.9532 1.83443C63.981 1.27213 62.8753 0.98837 61.7553 1.01373V1.00028Z" fill="#E0A029"/>
<path fill-rule="evenodd" clip-rule="evenodd" d="M58.0558 4.77079C59.0648 4.24967 60.1868 3.98515 61.3226 4.00064C62.4584 4.01614 63.5728 4.31119 64.5671 4.85964L114.688 36.2292C116.467 37.3398 116.431 39.1036 114.616 40.152L63.9712 69.2425C62.9525 69.7552 61.8251 70.0148 60.6846 69.9993C59.544 69.9839 58.4241 69.6938 57.4198 69.1536L7.33044 38.5971C5.55138 37.5042 5.55136 35.7405 7.36155 34.6742L58.0558 4.77079Z" fill="#361F59"/>
<path fill-rule="evenodd" clip-rule="evenodd" d="M34.7858 58.8074C34.8464 59.1937 35.0364 59.547 35.3237 59.8076C35.6111 60.0682 35.9781 60.2203 36.3631 60.2381L52.3401 60.5251C52.7418 60.5127 53.1311 60.3813 53.4601 60.147C53.789 59.9127 54.0432 59.5858 54.1914 59.2066L55.022 56.7489C55.1714 56.3697 55.4266 56.043 55.7562 55.8088C56.0858 55.5746 56.4756 55.4431 56.8778 55.4304L59.9309 55.4842C60.319 55.5034 60.6894 55.6544 60.9827 55.9131C61.276 56.1718 61.4751 56.523 61.548 56.9104L61.9545 59.534C62.0282 59.921 62.2274 60.2718 62.5206 60.5304C62.8137 60.7889 63.1838 60.9402 63.5716 60.9602H64.6276C64.9997 60.9694 65.3538 61.1244 65.6157 61.3928C65.8777 61.6612 66.0271 62.022 66.0327 62.3998V64.6422C66.047 65.0342 66.1921 65.4097 66.4441 65.7071C66.6962 66.0045 67.0403 66.2062 67.4201 66.2791L78.3468 68.0327C78.5193 68.0659 78.697 68.0598 78.8669 68.0148C79.0368 67.9698 79.1948 67.887 79.3293 67.7724C79.4638 67.6577 79.5715 67.5142 79.6446 67.3521C79.7177 67.19 79.7543 67.0135 79.7518 66.8352L79.88 59.4264C79.8649 58.7762 79.9838 58.1301 80.2291 57.5293C80.4058 57.2647 80.7371 57.6594 80.9625 58.4263L83.8257 67.804C83.9663 68.1943 84.2079 68.5389 84.5251 68.8017C84.8424 69.0645 85.2234 69.2357 85.6283 69.2974L102.374 70.9926C103.139 71.0689 103.492 70.5442 103.156 69.8535L90.7846 43.7924C90.6219 43.3956 90.5504 42.9664 90.5756 42.5374C90.6009 42.1085 90.7222 41.691 90.9304 41.3167L104.804 19.3413C105.215 18.6865 104.959 18.3456 104.225 18.5833L84.4928 25.0235C83.6721 25.3449 82.996 25.9609 82.5929 26.7546L80.5516 31.4009C80.2379 32.114 79.9949 32.0557 80.0081 31.2753L80.0656 27.8175C80.0902 27.6565 80.0693 27.4916 80.0053 27.3422C79.9413 27.1927 79.8369 27.0647 79.7041 26.9731C79.5712 26.8815 79.4156 26.8301 79.2551 26.8248C79.0946 26.8194 78.9359 26.8604 78.7975 26.943L70.0756 30.616C69.4175 30.8676 68.8483 31.3126 68.4407 31.8942C68.2507 32.2978 67.9061 32.0198 67.6719 31.2798L65.9046 25.5841C65.7645 25.1991 65.5185 24.8631 65.1958 24.6158C64.8731 24.3686 64.4873 24.2206 64.0842 24.1893L53.3828 23.8395C53.2119 23.8443 53.0424 23.8074 52.8885 23.7319C52.7346 23.6564 52.6007 23.5446 52.4982 23.4058C52.3956 23.267 52.3273 23.1052 52.299 22.9341C52.2708 22.763 52.2833 22.5875 52.3357 22.4223L57.7747 1.02985C57.9691 0.276406 57.5228 -0.163102 56.785 0.0566524L38.6121 5.4384C38.2218 5.57726 37.873 5.8149 37.5985 6.12881C37.324 6.44273 37.133 6.82255 37.0436 7.23232L35.5899 16.0539C35.4617 16.8208 35.0597 16.8881 34.7062 16.2019L31.5868 10.3717C31.3864 10.0272 31.0829 9.75663 30.7206 9.59934C30.3582 9.44205 29.9558 9.40625 29.572 9.49715L16.8072 13.1971C16.6428 13.2297 16.4891 13.3037 16.3603 13.4124C16.2314 13.5211 16.1316 13.661 16.07 13.8191C16.0084 13.9773 15.9869 14.1486 16.0077 14.3173C16.0284 14.4861 16.0906 14.6468 16.1886 14.7847L31.5647 40.348C32.0088 41.1599 32.308 42.0451 32.4484 42.9627L34.7858 58.8074Z" fill="white"/>
<path fill-rule="evenodd" clip-rule="evenodd" d="M58.467 36.9473C58.5732 36.5668 58.7054 36.1941 58.8628 35.8319C59.007 36.1991 59.1247 36.5762 59.2151 36.9604L61.6374 45.8532C61.6855 45.986 61.699 46.1289 61.6767 46.2683C61.6545 46.4078 61.5971 46.5393 61.5101 46.6504C61.4231 46.7616 61.3093 46.8487 61.1794 46.9036C61.0495 46.9585 60.9078 46.9794 60.7676 46.9643L56.4708 46.8902C56.3313 46.8994 56.1919 46.8728 56.0655 46.813C55.9391 46.7531 55.8301 46.6619 55.7487 46.5481C55.6673 46.4343 55.6162 46.3015 55.6002 46.1624C55.5843 46.0232 55.604 45.8823 55.6576 45.753L58.467 36.9473ZM44.0763 57.3821C44.0172 57.5062 43.9917 57.6436 44.0024 57.7807C44.013 57.9177 44.0594 58.0496 44.1369 58.163C44.2145 58.2764 44.3204 58.3674 44.4441 58.4269C44.5677 58.4864 44.7049 58.5122 44.8417 58.5019L50.3301 58.5977C50.666 58.5894 50.9921 58.4821 51.2675 58.2891C51.5428 58.0961 51.7553 57.8261 51.8783 57.5128L53.0656 54.0707C53.1919 53.7597 53.4052 53.4918 53.6799 53.2993C53.9545 53.1068 54.2788 52.998 54.6138 52.9858L62.4811 53.1252C62.8154 53.1473 63.1357 53.2672 63.4025 53.4702C63.6692 53.6731 63.8706 53.9501 63.9815 54.2668L65.0122 57.7525C65.1268 58.0676 65.3297 58.343 65.5966 58.5455C65.8635 58.748 66.1831 58.869 66.5169 58.894L72.1271 58.9942C72.2641 59.011 72.403 58.991 72.5297 58.9363C72.6564 58.8815 72.7663 58.7941 72.8482 58.6828C72.93 58.5715 72.9809 58.4405 72.9956 58.303C73.0103 58.1656 72.9882 58.0267 72.9317 57.9006L63.2813 28.2243C63.1636 27.9069 62.9561 27.6308 62.6842 27.4296C62.4124 27.2284 62.0879 27.1109 61.7505 27.0915L56.3404 27C56.0022 27.0077 55.6735 27.114 55.3946 27.3059C55.1158 27.4978 54.8989 27.767 54.7704 28.0806L44.0763 57.3821Z" fill="#E0A029"/>
<path d="M72.6046 60H72.5732L66.7755 59.8968C66.3185 59.873 65.8792 59.7127 65.5146 59.4366C65.1499 59.1605 64.8768 58.7813 64.7306 58.3483L63.6654 54.7575C63.5829 54.537 63.4394 54.3445 63.2517 54.2023C63.0639 54.0601 62.8396 53.974 62.6048 53.9541L54.4746 53.8104C54.2368 53.8179 54.0065 53.8946 53.8117 54.0309C53.6169 54.1672 53.4661 54.3574 53.3779 54.578L52.151 58.1193C51.9867 58.5458 51.6988 58.9136 51.3241 59.1758C50.9495 59.438 50.505 59.5828 50.0476 59.5915L44.3758 59.4883C44.1525 59.4929 43.9316 59.442 43.7329 59.3401C43.5341 59.2383 43.3639 59.0888 43.2373 58.905C43.1108 58.7212 43.0319 58.5089 43.0079 58.2872C42.9838 58.0654 43.0152 57.8412 43.0994 57.6346L54.1464 27.4587C54.3181 27.0348 54.6106 26.6705 54.9878 26.4112C55.3649 26.1519 55.81 26.0089 56.2678 26L61.8587 26.0987C62.3153 26.1223 62.7548 26.2796 63.1225 26.5509C63.4901 26.8223 63.7696 27.1958 63.9261 27.6248L73.9125 58.1732C73.9914 58.3792 74.0175 58.6016 73.9885 58.8203C73.9595 59.039 73.8763 59.2469 73.7463 59.4253C73.6164 59.6036 73.4439 59.7467 73.2445 59.8416C73.0451 59.9365 72.8252 59.9801 72.6046 59.9686V60ZM54.4521 52.7826H54.4835L62.6138 52.9262C63.0708 52.9499 63.51 53.1103 63.8747 53.3864C64.2393 53.6625 64.5125 54.0417 64.6587 54.4747L65.7238 58.0655C65.8045 58.2871 65.9474 58.4808 66.1356 58.6233C66.3237 58.7659 66.549 58.8511 66.7845 58.8689L72.5822 58.9721C72.6394 58.9808 72.6979 58.9756 72.7527 58.9568C72.8074 58.938 72.8569 58.9064 72.8968 58.8644C72.9222 58.8127 72.9354 58.7559 72.9354 58.6984C72.9354 58.6408 72.9222 58.584 72.8968 58.5323L62.9104 27.9839C62.8219 27.7613 62.6727 27.568 62.4796 27.426C62.2865 27.2839 62.0574 27.1989 61.8183 27.1805L56.2273 27.0817C55.987 27.0947 55.755 27.1737 55.5568 27.3099C55.3585 27.4461 55.2018 27.6343 55.1037 27.8537L44.0612 58.0296C44.03 58.0787 44.014 58.1358 44.0151 58.194C44.0163 58.2521 44.0345 58.3086 44.0676 58.3565C44.1006 58.4043 44.147 58.4414 44.2011 58.4631C44.2551 58.4848 44.3143 58.4901 44.3713 58.4784L50.0431 58.5816C50.2777 58.5683 50.5037 58.4893 50.6953 58.3535C50.8869 58.2178 51.0362 58.0308 51.1263 57.8141L52.3532 54.2683C52.5146 53.8397 52.8008 53.4691 53.1748 53.2044C53.5489 52.9396 53.9937 52.7927 54.4521 52.7826V52.7826ZM60.8655 47.6298H60.834L56.3936 47.5535C56.1649 47.5703 55.9358 47.5286 55.7277 47.4323C55.5197 47.3361 55.3397 47.1884 55.2047 47.0033C55.0698 46.8181 54.9843 46.6017 54.9564 46.3744C54.9285 46.1471 54.9591 45.9165 55.0453 45.7043L57.9397 36.6331C58.3352 35.3809 58.4161 35.1205 58.8385 35.1205C59.261 35.1205 59.3554 35.3853 59.7059 36.669L62.2093 45.83C62.2781 46.0393 62.2953 46.262 62.2595 46.4794C62.2237 46.6968 62.1359 46.9023 62.0035 47.0785C61.8712 47.2548 61.6982 47.3965 61.4993 47.4917C61.3004 47.5869 61.0814 47.6327 60.861 47.6253L60.8655 47.6298ZM58.8295 37.3378L56.061 46.0185C56.0367 46.076 56.0261 46.1384 56.03 46.2007C56.0339 46.263 56.0522 46.3235 56.0835 46.3776C56.1242 46.4234 56.175 46.4591 56.232 46.4817C56.289 46.5043 56.3505 46.5132 56.4116 46.5077L60.852 46.584C60.9138 46.5921 60.9766 46.5853 61.0352 46.5643C61.0939 46.5432 61.1466 46.5084 61.1891 46.4628C61.2204 46.4091 61.2401 46.3494 61.2471 46.2875C61.254 46.2257 61.248 46.1632 61.2295 46.1038L58.8295 37.3378Z" fill="#9E562C"/>
<path fill-rule="evenodd" clip-rule="evenodd" d="M70 64.9586C70.004 65.2905 70.1235 65.6107 70.3379 65.8643C70.5523 66.1179 70.8483 66.2891 71.1753 66.3486L76.3536 67.1403C76.5034 67.1677 76.6574 67.1614 76.8045 67.122C76.9515 67.0826 77.088 67.011 77.204 66.9124C77.3199 66.8138 77.4124 66.6906 77.4748 66.5519C77.5373 66.4131 77.568 66.2623 77.5649 66.1102L77.7045 58.1211C77.7545 57.3395 78.0007 56.583 78.4204 55.9214L80.5638 52.867C80.9466 52.3227 81.4329 52.3902 81.6491 53.02L86.6023 67.5316C86.7357 67.863 86.9526 68.1543 87.2319 68.3774C87.5112 68.6004 87.8433 68.7476 88.1963 68.8047L99.206 69.9922C99.8679 70.0642 100.179 69.6279 99.8949 69.0251L87.9666 43.506C87.8302 43.1662 87.7724 42.8 87.7973 42.4347C87.8223 42.0694 87.9294 41.7145 88.1108 41.3963L99.4806 23.7043C99.8409 23.142 99.6202 22.8586 98.9898 23.07L87.9711 26.7587C87.2507 27.0392 86.6397 27.5439 86.2285 28.1981L78.5735 41.7831C78.2448 42.3589 77.9881 42.2914 78.0017 41.6257L78.1818 31.4819C78.2034 31.3465 78.1855 31.2077 78.1303 31.0822C78.0752 30.9566 77.9851 30.8495 77.8707 30.7737C77.7564 30.6978 77.6226 30.6564 77.4853 30.6544C77.3481 30.6523 77.2131 30.6898 77.0966 30.7622L71.6616 33.1688C71.3433 33.3303 71.0723 33.5714 70.875 33.8686C70.6777 34.1658 70.5609 34.5089 70.5358 34.8647L70 64.9586Z" fill="#E0A029"/>
<path d="M98.8539 69.9991H98.6668L88.0272 68.8114C87.5899 68.7451 87.1777 68.5634 86.8322 68.2845C86.4867 68.0057 86.2201 67.6396 86.0594 67.2233L81.2708 53.0278C81.2538 52.9823 81.2334 52.9382 81.2099 52.8958C81.1769 52.9319 81.1464 52.9701 81.1184 53.0102L79.0419 55.9971C78.6959 56.5606 78.4912 57.2008 78.4454 57.8623L78.3105 65.6749C78.3114 65.8952 78.2648 66.113 78.174 66.3133C78.0832 66.5136 77.9503 66.6915 77.7846 66.8346C77.6189 66.9778 77.4244 67.0828 77.2145 67.1423C77.0046 67.2018 76.7844 67.2145 76.5692 67.1794L71.5628 66.4051C71.1258 66.3268 70.7299 66.0958 70.4442 65.7524C70.1586 65.4091 70.0013 64.9753 70 64.5268L70.5049 35.102C70.5328 34.6561 70.6761 34.2255 70.9206 33.8534C71.1651 33.4812 71.5022 33.1806 71.8981 32.9816L77.1525 30.6326C77.3424 30.5304 77.5563 30.4822 77.7712 30.4931C77.9861 30.5041 78.194 30.5738 78.3727 30.6948C78.5515 30.8159 78.6944 30.9837 78.7862 31.1803C78.878 31.377 78.9152 31.5952 78.8939 31.8115L78.7371 40.8866L85.7329 28.3407C86.1993 27.5971 86.8888 27.0237 87.7007 26.7043L98.3533 23.0927C99.0455 22.8596 99.3763 23.1191 99.5113 23.2907C99.6462 23.4622 99.8117 23.8538 99.4155 24.4784L88.4233 41.7796C88.2952 42.0176 88.2195 42.2808 88.2015 42.5511C88.1834 42.8214 88.2235 43.0924 88.3189 43.3456L99.8509 68.3055C99.955 68.496 100.006 68.7114 99.9994 68.929C99.9925 69.1465 99.9277 69.3582 99.8117 69.5416C99.7003 69.6902 99.5551 69.8094 99.3883 69.889C99.2216 69.9687 99.0382 70.0064 98.8539 69.9991V69.9991ZM81.2316 51.8621C81.2736 51.8577 81.3159 51.8577 81.3579 51.8621C81.5677 51.904 81.7613 52.0059 81.9156 52.1556C82.0699 52.3053 82.1785 52.4965 82.2285 52.7067L87.0172 66.8978C87.1151 67.1297 87.2679 67.3337 87.4623 67.4917C87.6566 67.6498 87.8865 67.757 88.1316 67.804L98.7712 68.9609C98.8443 68.9768 98.9204 68.9691 98.9889 68.9389C98.9738 68.8714 98.9534 68.8053 98.9279 68.741L87.3872 43.7943C87.2182 43.384 87.1456 42.9397 87.1751 42.4963C87.2045 42.0529 87.3353 41.6224 87.557 41.2385L98.4012 24.1661L88.0098 27.6853C87.434 27.9213 86.9433 28.3296 86.6036 28.8554L79.2029 42.1403C78.9156 42.6506 78.5891 42.8618 78.2278 42.7606C77.8664 42.6594 77.6923 42.3207 77.701 41.7268L77.8752 31.8071C77.8829 31.761 77.8802 31.7138 77.8674 31.6688C77.8546 31.6239 77.8319 31.5825 77.8012 31.5476C77.7663 31.5212 77.6706 31.5212 77.54 31.5828L72.2855 33.9318C72.0672 34.0519 71.8812 34.2241 71.7439 34.4334C71.6065 34.6427 71.522 34.8828 71.4975 35.1327L70.9925 64.562C70.9976 64.7616 71.0698 64.9535 71.1972 65.1062C71.3246 65.2589 71.4996 65.3633 71.6934 65.4022L76.6997 66.1764C76.7755 66.1935 76.8541 66.1928 76.9295 66.1745C77.005 66.1562 77.0753 66.1207 77.1351 66.0708C77.1904 66.0212 77.2346 65.9602 77.2646 65.8919C77.2946 65.8236 77.3099 65.7496 77.3092 65.6749L77.4442 57.8579C77.4939 56.9917 77.7622 56.1527 78.2234 55.4209L80.3 52.4339C80.398 52.2697 80.534 52.1319 80.6962 52.0323C80.8585 51.9327 81.0422 51.8743 81.2316 51.8621Z" fill="#9E562C"/>
<path fill-rule="evenodd" clip-rule="evenodd" d="M52.9573 5.84579C53.1302 5.21402 52.7623 4.85618 52.1374 5.05498L42.2098 8.14755C41.8793 8.27273 41.585 8.47738 41.353 8.74329C41.1211 9.00921 40.9587 9.32814 40.8802 9.67174L37.7335 28.0151C37.6227 28.6601 37.2903 28.7131 36.9756 28.1344L29.4413 13.9483C29.2737 13.6597 29.0171 13.4327 28.7096 13.3013C28.4021 13.1699 28.0602 13.1412 27.735 13.2194L20.6748 15.1677C20.5388 15.201 20.4127 15.266 20.3067 15.3573C20.2008 15.4485 20.1181 15.5636 20.0653 15.6929C20.0125 15.8222 19.9913 15.9621 20.0032 16.1012C20.0152 16.2403 20.06 16.3746 20.1341 16.4931L34.702 41.079C35.0775 41.7668 35.3309 42.5141 35.451 43.288L37.2238 57.6729C37.2717 57.9956 37.4303 58.2918 37.6728 58.511C37.9153 58.7301 38.2265 58.8586 38.5534 58.8745L45.5515 58.9982C45.6989 59.0071 45.8465 58.9822 45.9828 58.9253C46.119 58.8685 46.2404 58.7812 46.3376 58.6703C46.4348 58.5594 46.5051 58.4277 46.5432 58.2854C46.5814 58.1431 46.5863 57.994 46.5575 57.8496L43.8983 40.836C43.8071 40.0625 43.8521 39.2791 44.0313 38.521L52.9573 5.84579Z" fill="#E0A029"/>
<path d="M43.9845 38.1317C43.8234 38.82 43.7831 39.531 43.8653 40.233L46.5165 57.2337C46.5596 57.4512 46.5532 57.6756 46.4979 57.8902C46.4425 58.1049 46.3395 58.3044 46.1965 58.474C46.0535 58.6435 45.8742 58.7788 45.6718 58.8698C45.4695 58.9607 45.2492 59.0051 45.0274 58.9995H45.0053L38.0281 58.8759C37.5768 58.8605 37.1455 58.6864 36.81 58.3844C36.4745 58.0823 36.2566 57.6717 36.1944 57.2249L34.4269 42.8465C34.3156 42.1466 34.0871 41.4706 33.7508 40.8467L19.2221 16.2838C19.1014 16.0976 19.0274 15.885 19.0063 15.6642C18.9852 15.4434 19.0176 15.2207 19.1008 15.015C19.184 14.8093 19.3155 14.6267 19.4843 14.4826C19.6531 14.3384 19.8541 14.237 20.0704 14.1868L27.1095 12.2356C27.5469 12.1277 28.0076 12.1654 28.4216 12.3431C28.8355 12.5208 29.18 12.8288 29.4028 13.22L36.7821 27.1128L39.8752 9.10562C39.9702 8.66765 40.1749 8.26094 40.4701 7.92354C40.7653 7.58614 41.1414 7.32908 41.5631 7.17643L51.461 4.08621C51.6633 4.00453 51.8843 3.98026 52.0995 4.0161C52.3147 4.05193 52.5158 4.14647 52.6806 4.28927C52.8288 4.44892 52.9305 4.64592 52.9749 4.85907C53.0193 5.07222 53.0046 5.29344 52.9325 5.49887V5.49887L43.9845 38.1317ZM27.6088 13.2156C27.5358 13.2151 27.463 13.2241 27.3923 13.2421L20.3532 15.1934C20.2909 15.2052 20.2321 15.2312 20.1815 15.2695C20.1309 15.3078 20.0899 15.3573 20.0616 15.4141C20.0429 15.4741 20.0383 15.5376 20.0483 15.5996C20.0582 15.6617 20.0825 15.7206 20.1191 15.7717L34.6434 40.339C35.0553 41.0836 35.332 41.8952 35.4609 42.7361L37.2284 57.1101C37.2626 57.3101 37.363 57.4929 37.5137 57.629C37.6644 57.7651 37.8564 57.8466 38.0591 57.8606L45.0362 57.9842C45.1086 57.9907 45.1816 57.98 45.2491 57.9532C45.3166 57.9264 45.3769 57.8841 45.425 57.8297C45.4704 57.7743 45.5027 57.7094 45.5195 57.6399C45.5363 57.5703 45.5373 57.4979 45.5223 57.4279L42.8711 40.4273C42.7674 39.5824 42.8153 38.7258 43.0124 37.8977L51.9604 5.22959C51.9725 5.16541 51.9725 5.09952 51.9604 5.03534C51.8958 5.03522 51.8316 5.04566 51.7704 5.06625L41.8724 8.15648C41.6321 8.25294 41.4179 8.40478 41.2474 8.59965C41.0769 8.79451 40.9549 9.02687 40.8914 9.27778L37.7542 27.6072C37.6304 28.3401 37.2416 28.4902 37.0251 28.5431C36.8085 28.5961 36.3843 28.5431 36.0353 27.881L28.5234 13.7056C28.4308 13.5453 28.2975 13.4123 28.1369 13.3201C27.9762 13.2278 27.7941 13.1796 27.6088 13.1803V13.2156Z" fill="#9E562C"/>
<path d="M101 38V36H101.416L101.91 37.4171C101.961 37.5508 101.994 37.6471 102.011 37.7112L102.124 37.3957L102.629 36H103V38H102.736V36.3262L102.124 38H101.871L101.264 36.2995V38H101Z" fill="white"/>
<path d="M103 37.9947V36.0012H103.505C103.583 35.9949 103.661 36.013 103.736 36.0545C103.788 36.0924 103.832 36.1599 103.86 36.2464C103.892 36.3362 103.908 36.4395 103.909 36.5449C103.909 36.6788 103.881 36.8082 103.83 36.9073C103.763 37.011 103.679 37.0745 103.59 37.0885C103.622 37.113 103.652 37.1473 103.678 37.1898C103.726 37.2681 103.768 37.3578 103.802 37.4563L104 37.9893H103.812L103.663 37.5736C103.617 37.4563 103.584 37.3657 103.553 37.3018C103.533 37.2498 103.507 37.2047 103.477 37.1685C103.457 37.1443 103.434 37.1262 103.41 37.1152H103.325H103.152V38L103 37.9947ZM103.152 36.8807H103.474C103.529 36.8851 103.583 36.8725 103.635 36.8434C103.671 36.8219 103.702 36.7808 103.723 36.7261C103.744 36.6723 103.754 36.6092 103.754 36.5449C103.755 36.5002 103.75 36.4557 103.739 36.415C103.729 36.3743 103.713 36.3385 103.693 36.3104C103.64 36.243 103.576 36.2109 103.511 36.2198H103.152V36.8807Z" fill="white"/>
<path d="M100 37.5C100 37.9945 100.147 38.4778 100.421 38.8889C100.696 39.3 101.086 39.6205 101.543 39.8097C102 39.9989 102.503 40.0484 102.988 39.952C103.473 39.8555 103.918 39.6174 104.268 39.2678C104.617 38.9181 104.855 38.4727 104.952 37.9877C105.048 37.5028 104.999 37.0001 104.81 36.5433C104.62 36.0865 104.3 35.696 103.889 35.4213C103.478 35.1466 102.994 35 102.5 35C101.837 35.0012 101.202 35.265 100.734 35.7336C100.265 36.2022 100.001 36.8373 100 37.5V37.5ZM100.462 37.5C100.461 37.092 100.581 36.6929 100.808 36.3532C101.034 36.0136 101.355 35.7487 101.732 35.5921C102.109 35.4356 102.524 35.3944 102.924 35.4738C103.324 35.5531 103.692 35.7495 103.98 36.038C104.269 36.3266 104.465 36.6942 104.545 37.0944C104.624 37.4947 104.583 37.9094 104.426 38.2862C104.27 38.663 104.005 38.9849 103.665 39.211C103.326 39.4371 102.927 39.5573 102.519 39.5564C102.247 39.5582 101.978 39.5064 101.727 39.4039C101.475 39.3015 101.247 39.1504 101.054 38.9593C100.861 38.7682 100.708 38.5409 100.603 38.2905C100.498 38.0401 100.444 37.7714 100.444 37.5H100.462Z" fill="white"/>
</svg>
